# xmcd CD database file
#
# Track frame offsets:
#	150
#	14867
#	28067
#	40967
#	54392
#	68042
#	83192
#	93842
#	110267
#	123017
#	138092
#	151967
#	165917
#	178817
#	190852
#	203492
#	216725
#	229892
#	244592
#	258392
#
# Disc length: 3628 seconds
#
# Revision: 2
# Processed by: cddbd v1.5.1PL0 Copyright (c) Steve Scherf et al.
# Submitted via: CDex 1.50
#
DISCID=0c0e2a14
DTITLE=Kenny Baker - Louis Armstrong Vol. 13
DYEAR=1900
DGENRE=Jazz -> General Jazz
TTITLE0=I Cover The Waterfront
TTITLE1=In The Gloaming
TTITLE2=Long, Long Ago
TTITLE3=Hey Lawdy Mamo
TTITLE4=L'll Get Mine Bye And Bye
TTITLE5=Do You Call That A Buddy
TTITLE6=Yes Suh!
TTITLE7=When It's Sleepy Time Down South
TTITLE8=Leap Frog
TTITLE9=I Used To Love You
TTITLE10=You Rascal You
TTITLE11=Cash For Your Trash
TTITLE12=Among My Souvenirs
TTITLE13=Coquette
TTITLE14=I Never Knew
TTITLE15=Groovin
TTITLE16=Baby Don't You Cry
TTITLE17=Jodie Man
TTITLE18=I Wonder
TTITLE19="Nger ~ My Arms
EXTD=
EXTT0=
EXTT1=
EXTT2=
EXTT3=
EXTT4=
EXTT5=
EXTT6=
EXTT7=
EXTT8=
EXTT9=
EXTT10=
EXTT11=
EXTT12=
EXTT13=
EXTT14=
EXTT15=
EXTT16=
EXTT17=
EXTT18=
EXTT19=
PLAYORDER=
